<mxfile host="app.diagrams.net" modified="2023-12-18T02:45:13.551Z" agent="Mozilla/5.0 (Windows NT 10.0; Win64; x64) AppleWebKit/537.36 (KHTML, like Gecko) Chrome/120.0.0.0 Safari/537.36 Edg/120.0.0.0" version="22.1.11" etag="hfPCC1in4BP42FezGx0H" type="github">
  <diagram name="Page-1" id="05CKCl6pFx_u-xMmG7Ii">
    <mxGraphModel>
      <root>
        <mxCell id="0" />
        <mxCell id="1" parent="0" />
      </root>
    </mxGraphModel>
  </diagram>
</mxfile>
